<?xml version="1.0" encoding="UTF-8" standalone="no"?>
<!DOCTYPE svg PUBLIC "-//W3C//DTD SVG 1.1//EN" "http://www.w3.org/Graphics/SVG/1.1/DTD/svg11.dtd">
<svg width="100%" height="100%" viewBox="0 0 1217 1219" version="1.1" xmlns="http://www.w3.org/2000/svg" xmlns:xlink="http://www.w3.org/1999/xlink" xml:space="preserve" xmlns:serif="http://www.serif.com/" style="fill-rule:evenodd;clip-rule:evenodd;stroke-linejoin:round;stroke-miterlimit:2;">
    <path d="M283.68,657.404L0,1110.84L0,1218.3L903.702,1218.3L651.174,1080.24L622.094,1072.12L473.63,1029.53L283.68,657.404Z"/>
    <path d="M315.819,495.058L380.656,240.049L573.18,367.127L1015.6,234.573L895.016,367.127L722.114,471.848L681.879,758.994L723.832,778.064L667.728,834.213L651.174,839.689L614.792,815.351L538.127,856.117L636.697,941.301L622.094,1072.12L473.63,1029.53L281.966,654.047L215.036,442.367L315.819,495.058Z" style="fill:rgb(247,245,239);"/>
    <path d="M622.094,1072.12L651.174,1080.24L919.523,713.703L1041.89,601.722L1123.28,234.573L895.016,367.127L722.114,471.848L681.879,758.994L723.832,778.064L667.728,834.213L722.114,884.227L636.697,941.301L622.094,1072.12" style="fill:rgb(84,130,176);"/>
    <path d="M804.108,528.356L1025.45,452.467L933.464,546.178L804.108,528.356Z" style="fill:rgb(247,245,239);"/>
    <path d="M417.369,386.011L622.094,499.322L490.891,493.924L417.369,386.011Z" style="fill:rgb(84,130,176);"/>
    <path d="M0,1110.84L0,0L1216.51,0L1216.51,43.917L1123.28,234.573L895.016,367.127L1015.6,234.573L573.18,367.127L380.656,240.049L315.819,495.058L215.036,442.367L283.68,657.404L0,1110.84Z" style="fill:rgb(35,56,77);"/>
    <path d="M1216.51,43.917L1216.51,1218.3L903.702,1218.3L651.174,1080.24L919.523,713.703L1041.89,601.722L1123.28,234.573L1216.51,43.917Z" style="fill:rgb(142,147,152);"/>
    <path d="M538.127,856.117L614.792,815.351L651.174,839.689L667.728,834.213L722.114,884.227L636.697,941.301L538.127,856.117Z" style="fill:rgb(201,199,196);"/>
</svg>
