<?xml version="1.0" encoding="UTF-8" standalone="no"?>
<!DOCTYPE svg PUBLIC "-//W3C//DTD SVG 1.1//EN" "http://www.w3.org/Graphics/SVG/1.1/DTD/svg11.dtd">
<svg width="100%" height="100%" viewBox="0 0 806 807" version="1.1" xmlns="http://www.w3.org/2000/svg" xmlns:xlink="http://www.w3.org/1999/xlink" xml:space="preserve" xmlns:serif="http://www.serif.com/" style="fill-rule:evenodd;clip-rule:evenodd;stroke-linecap:round;stroke-linejoin:round;stroke-miterlimit:1.5;">
    <g transform="matrix(1,0,0,1,-798.613,-1297.96)">
        <g transform="matrix(1.06305,0,0,1.06305,-74.8885,-126.49)">
            <g>
                <path d="M1050.76,1805.95C1050.76,1805.95 1048.37,1817.14 1050.28,1824.52C1048.27,1826.78 1053.79,1810.28 1058.13,1815.95L1058.85,1834.76L1070.99,1825.47L1080.03,1809.05L1067.89,1780.49L1054.09,1785.01L1050.76,1805.95Z" style="fill:rgb(46,73,99);stroke:rgb(46,73,99);stroke-width:10.36px;"/>
                <path d="M1071.26,1794.31C1071.26,1794.31 1070.69,1870.18 1053.56,1894.65C1036.44,1919.11 944.69,2006.58 944.69,2006.58C1059.36,1999.93 1168.17,2026.39 1285.08,2089.25C1275.16,2046.76 1264.56,1999.72 1285.32,1979.87C1299.19,1966.6 1322.08,1950.31 1322.08,1950.31C1322.08,1950.31 1134.3,1852.44 1117.79,1823.08C1101.27,1793.73 1087.82,1776.6 1087.82,1776.6L1071.26,1794.31Z" style="fill:rgb(84,130,176);stroke:rgb(46,73,99);stroke-width:18.06px;"/>
                <path d="M1066.68,1848.15C1066.68,1848.15 1098.57,1939.29 1139.52,1971.64C1208.55,2026.17 1274.14,2030.4 1274.14,2030.4L1279.88,1978.79L1099.22,1787.79L1079.69,1773L1066.68,1848.15Z" style="fill:rgb(46,73,99);"/>
                <path d="M1060.5,1691.8C1058.18,1680.3 1060.71,1663.7 1060.71,1663.7C1060.71,1663.7 1162.44,1629.8 1263.36,1635.31C1364.28,1640.81 1400.37,1672.62 1400.37,1672.62C1400.37,1672.62 1397.5,1762.68 1372.92,1847.36C1351.29,1921.88 1297.11,1991.48 1267.02,1994.34C1194.5,2001.25 1138.31,1926.92 1119.62,1894.65C1104.29,1868.17 1086.2,1817.09 1081.46,1799.42C1079.1,1806.81 1072.24,1803.8 1068.61,1804.9C1054.54,1809.19 1023.24,1790.82 1009.68,1763.6C997.079,1738.33 1000.63,1673.48 1034.88,1677.58C1042.22,1678.46 1054.89,1684.26 1060.5,1691.8Z" style="fill:rgb(84,130,176);stroke:rgb(46,73,99);stroke-width:18.06px;"/>
                <path d="M1037.66,1562.52C1037.66,1562.52 1030.32,1545.4 1042.55,1533.16C1054.79,1520.93 1063.35,1512.37 1063.35,1512.37C1063.35,1512.37 1047.74,1497.85 1032.43,1513.78C1023.36,1523.21 1022.98,1537.45 1022.98,1537.45C1022.98,1537.45 1017.68,1502.3 1035.21,1478.73C1056.47,1450.16 1079.25,1444.48 1079.25,1444.48C1079.25,1444.48 1080.47,1426.13 1045,1424.29C1075.58,1410.84 1093.32,1416.95 1093.32,1416.95C1093.32,1416.95 1093.93,1390.04 1080.47,1392.49C1096,1380.44 1135.9,1394.12 1145.92,1410.22C1145.92,1410.22 1129.41,1368.02 1103.11,1371.08C1122.77,1367.02 1151.37,1377.15 1154.48,1390.65C1154.48,1390.65 1159.99,1366.8 1173.44,1358.23C1186.9,1349.67 1201.58,1353.34 1201.58,1353.34L1197.91,1374.14C1197.91,1374.14 1232.78,1348.45 1245.01,1348.45C1257.24,1348.45 1322.69,1371.69 1322.69,1371.69C1322.69,1371.69 1303.11,1382.7 1302.5,1399.21C1334.92,1394.32 1372.84,1401.05 1394.25,1415.12C1415.66,1429.18 1419.94,1440.81 1419.94,1440.81C1419.94,1440.81 1412.6,1427.35 1394.25,1429.8C1411.11,1439.26 1441,1479.45 1435.84,1482.4C1436.7,1475.04 1410.31,1461.21 1409.54,1468.94C1414.43,1464.75 1452.78,1506.77 1446.24,1512.98C1441.94,1502.41 1414.25,1501.12 1418.1,1511.14C1432.68,1519.5 1441.45,1531.74 1446.24,1546.62C1436.86,1534.28 1426.46,1527.56 1413.82,1533.16L1430.95,1560.69L1414.43,1557.02L1193.63,1554.57" style="fill:rgb(62,98,133);stroke:rgb(46,73,99);stroke-width:10.36px;"/>
                <path d="M1193.63,1554.57L1037.66,1562.52" style="fill:none;stroke:rgb(46,73,99);stroke-width:10.36px;"/>
                <g transform="matrix(0.940694,0,0,0.940694,70.4471,118.988)">
                    <path d="M1115.45,2027.66C1013.79,1999.3 1025.49,2012.96 929.36,2006.59C929.36,2006.59 1026.89,1913.61 1045.1,1887.6C1052.3,1877.31 1056.75,1858.47 1059.49,1839.45C1059.19,1838.62 1059.04,1838.17 1059.04,1838.17L1061.21,1825.61C1061.59,1822.04 1061.92,1818.53 1062.2,1815.16L1050.71,1823.94L1049.95,1803.95C1046.47,1799.39 1042.27,1808.29 1041.34,1811.88C1041.42,1812.28 1041.51,1812.67 1041.61,1813.06C1041.08,1813.65 1041.04,1813.04 1041.34,1811.88C1039.82,1804.08 1042.11,1793.32 1042.11,1793.32L1042.67,1789.8C1027.05,1783.53 1008.32,1768.12 998.442,1748.3C985.051,1721.43 988.827,1652.49 1025.23,1656.85C1033.04,1657.79 1046.5,1663.96 1052.47,1671.97C1050.95,1664.44 1051.39,1654.85 1051.95,1648.6C1041.14,1652.6 1030.25,1657.12 1026.33,1656.25C1020.3,1654.91 1020.64,1645.54 1020.64,1643.2C1020.64,1640.86 1016.28,1583.96 1015.62,1565.88C1015.14,1553.08 1022.23,1536.58 1026.4,1528.04C1025.27,1521.57 1025.29,1511.44 1033.39,1503.33C1046.4,1490.33 1055.5,1481.23 1055.5,1481.23C1055.5,1481.23 1038.9,1465.8 1022.63,1482.73C1012.99,1492.76 1012.59,1507.88 1012.59,1507.88C1012.59,1507.88 1006.95,1470.52 1025.59,1445.46C1048.18,1415.1 1072.4,1409.05 1072.4,1409.05C1072.4,1409.05 1073.71,1389.55 1035.99,1387.6C1068.5,1373.29 1087.36,1379.79 1087.36,1379.79C1087.36,1379.79 1088.01,1351.18 1073.71,1353.79C1090.21,1340.98 1132.63,1355.53 1143.28,1372.64C1143.28,1372.64 1125.72,1327.78 1097.76,1331.03C1118.67,1326.71 1149.07,1337.49 1152.38,1351.84C1152.38,1351.84 1158.23,1326.48 1172.54,1317.37C1186.84,1308.27 1202.45,1312.17 1202.45,1312.17L1198.55,1334.28C1198.55,1334.28 1235.61,1306.97 1248.61,1306.97C1255.39,1306.97 1277.56,1313.69 1297.22,1320.12L1253.16,1348C1253.16,1348 1257.37,1381.51 1240.16,1386.81C1226.11,1391.13 1191.38,1365.99 1181.38,1376.6C1172.81,1385.7 1186.71,1427.54 1181,1424C1159.35,1410.59 1139.36,1407.89 1138.81,1417.89C1137.7,1437.81 1132.63,1461.14 1147,1478C1147,1478 1147.88,1597.06 1148,1753.94C1148.03,1793.49 1153.9,1827.66 1162.67,1856.65C1165.04,1864.46 1172.88,1881.55 1196.34,1893.96C1181.17,1967.13 1229.92,1983.6 1240.16,1983L1133.34,1940.69L1115.45,2027.66Z" style="fill:rgb(46,73,99);fill-opacity:0.43;"/>
                </g>
            </g>
            <path d="M1340.05,1523.89C1340.05,1523.89 1346.35,1530.09 1348.79,1536.49C1360.27,1566.72 1361.09,1597.42 1349.82,1635.36C1348.53,1639.69 1366.99,1663.99 1366.77,1668.67C1365.05,1704.96 1367.42,1728.33 1358.59,1768.91C1347.54,1819.7 1326.24,1888.93 1320.09,1899.33C1315.42,1957.27 1285.87,1974.11 1256.45,1986.76C1274.03,1987.21 1355.35,1942.68 1380.87,1764.72C1385.53,1732.25 1390.43,1698.73 1393.97,1670.66C1395.19,1660.98 1408.71,1663.72 1410.45,1655.29C1416.21,1627.37 1414.62,1597.01 1416.45,1580.29C1418.12,1565.03 1413.42,1551.11 1413.42,1551.11C1412.62,1538 1398.34,1525.12 1427.52,1525.82C1423.56,1522.04 1392.77,1501.05 1434.77,1499.04C1431.01,1491.74 1427.77,1488.09 1410.62,1474.74C1406.13,1471.25 1398.04,1464.71 1419.1,1460.06C1409.11,1445.98 1387.99,1434.49 1390.87,1427.55C1391.8,1425.32 1390.48,1425.65 1397.67,1424.04C1394.37,1414.72 1355.97,1405.45 1346.22,1403.94C1358.41,1410.45 1370.73,1417.99 1383.93,1432.06C1370.61,1429.09 1359.64,1429.51 1350.84,1433.07C1371.27,1441.02 1380.25,1448.68 1380.61,1456.13C1364.27,1451.61 1354.28,1456.46 1348.47,1467.5C1370.16,1473.78 1386.46,1487.89 1398.12,1508.72C1363.15,1505.9 1346.92,1500.12 1340.05,1523.89Z" style="fill:white;fill-opacity:0.42;"/>
            <path d="M1038.74,1551.07C1038.74,1551.07 1025.2,1575 1025.83,1592C1026.46,1609.01 1030.55,1662.53 1030.55,1664.74C1030.55,1666.94 1030.24,1675.76 1035.9,1677.01C1041.57,1678.27 1062.67,1667.57 1075.26,1665.05C1087.86,1662.53 1233,1629.79 1313.29,1644.59C1393.58,1659.38 1398.93,1682.68 1398.93,1682.68C1398.93,1682.68 1405.54,1679.22 1409.32,1672.92C1413.1,1666.62 1421.91,1592 1421.29,1575.63C1420.65,1559.26 1412.15,1555.48 1410.58,1553.28C1409.01,1551.07 1352.93,1514.82 1232.37,1514.55C1122.05,1514.3 1038.74,1551.07 1038.74,1551.07Z" style="fill:rgb(25,39,53);stroke:rgb(24,38,52);stroke-width:18.06px;"/>
            <path d="M1388.93,1671.12C1393.79,1674.78 1396.32,1677.89 1397.62,1679.97C1398.75,1679.55 1399.94,1679.07 1401.12,1678.51C1404.42,1676.93 1407.55,1674.73 1409.72,1672.04C1410.54,1669.89 1411.53,1665.23 1412.59,1659.02C1412.35,1657.96 1412.02,1656.88 1411.6,1655.8C1410,1651.65 1406.75,1647.33 1405.14,1643.43C1403.15,1638.59 1405.17,1630.34 1405.17,1630.34L1398.52,1621.47L1389.06,1620.72L1381.14,1629.03C1381.14,1629.03 1381.84,1634.44 1381.14,1639.61C1380.99,1640.74 1380.77,1641.87 1380.42,1642.89C1380.25,1643.41 1380.22,1643.99 1379.83,1644.25C1378.77,1644.96 1377.97,1644.23 1377.82,1644.07C1371.97,1637.67 1372.21,1656.29 1372.21,1656.29L1366.47,1653.55C1366.47,1653.55 1375.5,1664.91 1388.04,1656.56C1389.87,1655.34 1391.41,1653.61 1392.64,1651.53C1394.02,1654.17 1395.81,1656.94 1397.16,1659.68C1397.5,1660.37 1397.8,1661.05 1398.02,1661.73C1398.13,1662.07 1398.46,1662.36 1398.29,1662.66C1397.62,1663.85 1396.11,1664.51 1394.76,1665.15C1391.52,1666.7 1388.2,1667.35 1388.2,1667.35L1388.93,1671.12ZM1157.84,1535.24L1187.43,1550.06L1163.73,1585.76L1214.31,1606.44L1194.68,1636.6L1133.19,1650.78C1122.36,1640.85 1105.96,1636.79 1105.96,1636.79L1075.71,1655.32L1035.65,1638.84L1048.38,1599.16L1085.92,1588.38L1102.56,1551.69L1157.84,1535.24ZM1218.28,1642.79C1223.16,1642.39 1228.05,1642.04 1232.92,1641.75L1238.77,1633.14C1238.77,1633.14 1286.17,1627.47 1286.17,1627.47L1307.55,1643.62C1309.5,1643.92 1311.41,1644.24 1313.29,1644.59C1315.47,1644.99 1317.6,1645.4 1319.67,1645.81L1325.24,1638.45L1290.33,1612.07L1230.33,1619.26L1215.58,1640.95L1218.28,1642.79ZM1156.45,1551.09L1165.87,1555.8C1165.87,1555.8 1141.42,1592.62 1141.42,1592.62L1192.16,1613.36C1192.16,1613.36 1185.54,1623.53 1185.54,1623.53C1185.54,1623.53 1136.73,1634.79 1136.73,1634.79C1124.12,1626.14 1109.52,1622.43 1109.52,1622.43L1103.52,1620.94L1074.39,1638.78C1074.39,1638.78 1053.91,1630.35 1053.91,1630.35C1053.91,1630.35 1060.06,1611.19 1060.06,1611.19C1060.06,1611.19 1096.57,1600.71 1096.57,1600.71L1113.24,1563.95L1156.45,1551.09ZM1294.22,1518.13C1299.35,1518.73 1304.3,1519.4 1309.08,1520.13L1299.57,1550.76C1299.57,1550.76 1221.67,1560.94 1221.67,1560.94C1221.67,1560.94 1214.44,1572.06 1214.44,1572.06C1214.44,1572.06 1239.84,1585.87 1239.84,1585.87L1313.83,1582.02C1313.83,1582.02 1351.6,1611.7 1351.6,1611.7L1368.52,1612.67L1371.28,1604.27L1341.63,1564.23C1341.63,1564.23 1351.5,1541.47 1351.5,1541.47L1340.29,1526.1C1348.65,1528.05 1356.24,1530.13 1363.07,1532.24L1368.43,1539.59L1358.6,1562.28L1387.72,1601.62L1379.02,1628.09L1346.12,1626.2L1309.05,1597.08L1236.44,1600.86L1193.33,1577.41L1212.99,1547.16L1288.25,1537.32L1294.22,1518.13ZM1396,1544.85L1389.57,1547.35L1377.62,1571.23L1390.47,1599.13L1401.21,1612.35L1412.56,1622.91L1418.25,1616.79C1418.55,1614.09 1418.83,1611.42 1419.1,1608.79L1412.04,1602.23C1412.04,1602.23 1403.12,1591.25 1403.12,1591.25C1403.12,1591.25 1394.03,1571.49 1394.03,1571.49C1394.03,1571.49 1400.24,1559.07 1400.24,1559.07L1411.87,1554.56C1411.29,1554.05 1410.84,1553.64 1410.58,1553.28C1410.13,1552.65 1405.35,1549.32 1396,1544.85ZM1081.22,1536.33C1075.41,1538.02 1070.13,1539.67 1065.41,1541.23L1061.01,1567.67C1061.01,1567.67 1040.45,1580.9 1040.45,1580.9L1029.29,1572.63C1027.57,1577.84 1026.21,1583.38 1025.88,1588.52L1039.86,1598.88L1074.52,1576.56L1081.22,1536.33ZM1248.38,1514.8L1245.17,1523.73C1245.17,1523.73 1201.61,1531.43 1201.61,1531.43L1188.13,1516.39C1181.94,1516.91 1175.87,1517.54 1169.94,1518.25L1196.08,1547.43L1256.2,1536.8L1263.85,1515.48C1258.82,1515.19 1253.67,1514.96 1248.38,1514.8Z" style="fill:white;fill-opacity:0.55;"/>
            <g transform="matrix(0.906918,0,0,0.906918,197.317,601.153)">
                <rect x="688.464" y="814.648" width="835.529" height="835.529" style="fill:none;"/>
            </g>
        </g>
    </g>
</svg>
