<?xml version="1.0" encoding="UTF-8" standalone="no"?>
<!DOCTYPE svg PUBLIC "-//W3C//DTD SVG 1.1//EN" "http://www.w3.org/Graphics/SVG/1.1/DTD/svg11.dtd">
<svg width="100%" height="100%" viewBox="0 0 1011 972" version="1.1" xmlns="http://www.w3.org/2000/svg" xmlns:xlink="http://www.w3.org/1999/xlink" xml:space="preserve" xmlns:serif="http://www.serif.com/" style="fill-rule:evenodd;clip-rule:evenodd;stroke-linecap:round;stroke-linejoin:round;stroke-miterlimit:1.5;">
    <g transform="matrix(1,0,0,1,-2919.643799,-4361.77688)">
        <g transform="matrix(1.232604,0,0,1.185194,4.754537,-219.123733)">
            <rect x="2364.821" y="3865.107" width="819.917" height="819.917" style="fill:none;"/>
        </g>
        <g transform="matrix(1.205867,0,0,1.205867,-698.683543,-998.2139)">
            <g transform="matrix(0.72216,0,0,0.72216,1011.410451,1361.859228)">
                <path d="M3685.842,4804.007C3732.116,4754.495 3787.537,4740.838 3842.611,4736.422C3898.298,4820.74 3882.67,4893.758 3820.769,4961.591C3751.007,5019.946 3694.591,5002.998 3640.268,4974.233" style="fill:rgb(167,191,214);"/>
                <path d="M3838.081,4745.228C3819.879,4746.511 3796.018,4749.057 3770.137,4757.617C3736.538,4768.73 3711.216,4786.329 3690.297,4808.177C3688.535,4810.017 3686.423,4810.088 3686.051,4810.101C3685.27,4810.127 3684.469,4810.006 3683.737,4809.733C3681.33,4808.836 3680.431,4806.843 3680.276,4806.498C3679.254,4804.234 3679.992,4802.247 3680.12,4801.903C3680.689,4800.373 3680.827,4800.442 3681.936,4799.241C3723.251,4754.472 3770.303,4739.74 3809.1,4732.546C3811.604,4732.082 3824.08,4729.769 3840.622,4728.096C3840.829,4728.075 3842.475,4727.908 3843.218,4727.961C3843.723,4727.997 3846.622,4728.201 3848.912,4730.731C3849.539,4731.424 3855.722,4740.334 3861.676,4750.725C3884.809,4791.09 3903.198,4848.197 3868.644,4916.301C3858.25,4936.787 3844.392,4954.047 3841.95,4957.088C3841.124,4958.117 3836.603,4963.748 3831.29,4969.678C3830.842,4970.178 3830.425,4970.707 3829.943,4971.174C3829.352,4971.745 3825.398,4974.969 3824.999,4975.294C3823.98,4976.125 3810.101,4987.56 3793.733,4996.164C3741.291,5023.731 3696.214,5013.234 3656.372,4994.067C3647.314,4989.71 3643.059,4987.024 3635.591,4983.083C3635.049,4982.797 3631.937,4981.155 3630.712,4977.173C3630.335,4975.949 3630.183,4974.628 3630.301,4973.353C3630.688,4969.161 3633.457,4966.881 3633.937,4966.486C3637.084,4963.894 3640.545,4964.213 3641.146,4964.268C3643.849,4964.517 3643.796,4964.782 3646.199,4966.045C3649.419,4967.738 3664.878,4975.001 3678.3,4979.689C3711.862,4991.414 3745.613,4993.321 3783.303,4971.669C3795.14,4964.869 3801.749,4959.847 3811.498,4952.076C3811.77,4951.86 3825.565,4937.284 3837.295,4919.983C3868.999,4873.226 3877.772,4822.215 3846.974,4761.183C3844.954,4757.178 3842.796,4753.332 3842.417,4752.657C3840.812,4749.795 3839.288,4747.222 3838.081,4745.228Z" style="fill:rgb(35,56,77);"/>
                <path d="M3727.854,4873.402C3727.689,4873.477 3726.447,4874.034 3725.212,4874.125C3724.797,4874.155 3722.403,4874.33 3720.263,4872.508C3719.937,4872.23 3718.055,4870.627 3717.839,4867.731C3717.631,4864.926 3719.186,4863.099 3719.456,4862.782C3720.586,4861.456 3720.678,4861.545 3722.233,4860.749C3723.888,4859.902 3734.131,4854.719 3745.599,4853.892C3749.154,4853.636 3758.459,4853.115 3767.126,4859.005C3777.719,4866.204 3780.566,4878.477 3781.551,4884.174C3781.78,4885.501 3782.565,4892.347 3781.276,4898.926C3776.284,4924.389 3750.06,4932.929 3729.44,4931.955C3721.372,4931.573 3714.412,4929.431 3715.056,4926.262C3715.064,4926.223 3715.054,4926.17 3715.085,4926.144C3715.402,4925.881 3715.443,4925.942 3715.76,4925.679C3715.902,4925.907 3716.074,4926.116 3716.216,4926.344C3716.262,4926.419 3716.058,4926.784 3716.946,4927.311C3722.37,4930.536 3751.191,4926.332 3762.346,4910.492C3764.715,4907.127 3768.785,4899.914 3766.081,4887.733C3765.209,4883.805 3763.948,4872.713 3753.454,4870.012C3751.543,4869.521 3745.527,4867.862 3733.78,4871.295C3730.897,4872.137 3728.348,4873.2 3727.887,4873.393C3727.869,4873.4 3727.835,4873.411 3727.854,4873.402Z" style="fill:rgb(35,56,77);"/>
                <path d="M3824.386,4793.579C3823.434,4793.483 3820.825,4793.222 3812.788,4796.407C3810.936,4797.141 3803.452,4800.283 3795.437,4804.919C3790.143,4807.981 3774.239,4817.748 3761.388,4830.78C3758.345,4833.866 3746.825,4845.586 3733.901,4868.833C3733.172,4870.143 3729.054,4877.419 3724.435,4886.887C3720.512,4894.928 3718.394,4900.55 3718.342,4900.644C3718.287,4900.746 3718.031,4901.14 3716.963,4902.974C3716.85,4903.167 3716.818,4903.142 3715.246,4905.175C3714.374,4906.301 3713.244,4907.193 3710.275,4910.666C3709.467,4911.611 3707.31,4913.294 3705.263,4916.465C3705.174,4916.603 3705.062,4916.698 3704.96,4916.825C3704.887,4916.915 3704.91,4916.958 3704.878,4917.129C3705.027,4916.617 3705.1,4917.193 3705.429,4917.613C3705.205,4917.77 3705.006,4917.961 3704.782,4918.119C3704.778,4918.122 3704.255,4918.286 3703.604,4917.786C3701.896,4916.478 3700.588,4911.455 3699.921,4908.536C3699.541,4906.874 3699.103,4900.37 3699.109,4900.181C3699.129,4899.617 3699.32,4896.614 3699.336,4896.509C3699.354,4896.389 3699.996,4893.49 3700.02,4893.419C3700.453,4892.112 3702.528,4887.367 3702.756,4886.845C3707.649,4875.654 3716.564,4857.353 3733.72,4837.532C3737.145,4833.574 3747.655,4821.349 3764.322,4810.7C3779.459,4801.029 3793.63,4796.815 3797.126,4795.757C3797.225,4795.727 3806.568,4792.669 3816.335,4791.935C3818.135,4791.8 3822.956,4791.492 3825.36,4792.739C3825.471,4792.796 3825.576,4792.866 3825.675,4792.942C3825.697,4792.96 3825.736,4792.968 3825.74,4792.996C3825.803,4793.401 3825.746,4793.404 3825.809,4793.811C3825.54,4793.823 3825.273,4793.865 3825.004,4793.877C3824.949,4793.879 3824.992,4793.784 3824.389,4793.579L3824.386,4793.579Z" style="fill:rgb(35,56,77);"/>
            </g>
            <path d="M3165.656,4926.139C3166.055,4935.94 3168.575,4945.005 3174,4953C3212,5009 3339.39,5062.872 3326,5082L3544,5063L3543.684,5062.433C3549.069,5057.959 3585.14,5027.722 3614,4997C3645,4964 3719.532,4833.45 3645,4704C3569,4572 3540,4563 3540,4563C3543.106,4532.014 3562.309,4521.514 3587,4518C3555.617,4508.696 3525.46,4511.038 3498,4539C3496.054,4511.208 3515.728,4493.144 3553,4483C3553,4483 3357.825,4466.994 3223,4646C3088.175,4825.006 3109,4815 3119,4858C3128.045,4896.894 3157,4923 3157,4923L3165.656,4926.139Z" style="fill:rgb(84,130,176);"/>
            <path d="M3162.339,4928.588C3155.593,4926.13 3155.519,4926.159 3155.032,4925.82C3154.735,4925.612 3124.748,4899.444 3114.657,4859.51C3110.789,4844.202 3106.543,4836.692 3106.437,4825.019C3106.249,4804.462 3119.761,4777.339 3171.58,4703.868C3173.197,4701.575 3188.992,4679.379 3202.02,4661.734C3216.022,4642.768 3218.027,4640.18 3219.457,4638.334C3243.54,4607.244 3308.077,4531.047 3426.211,4495.974C3491.618,4476.556 3542.88,4478.96 3552.327,4479.659C3553.075,4479.715 3554.245,4479.71 3555.196,4480.57C3556.751,4481.974 3556.575,4484.531 3554.842,4485.709C3554.009,4486.276 3552.385,4486.443 3546.418,4488.398C3536.74,4491.567 3526.856,4495.902 3518.857,4501.93C3505.947,4511.659 3502.39,4522.519 3501.605,4530.831C3515.969,4518.435 3538.324,4505.717 3572.117,4511.664C3576.174,4512.378 3580.922,4513.408 3587.007,4515.232C3587.221,4515.296 3588.51,4515.525 3589.178,4516.487C3590.136,4517.867 3589.631,4520.199 3587.38,4520.625C3584.049,4521.256 3567.754,4523.224 3556.879,4533.045C3547.791,4541.251 3544.955,4551.908 3543.859,4560.849C3552.721,4565.859 3583.944,4589.775 3649.162,4699.544C3662.412,4721.844 3699.822,4788.303 3677.625,4886.081C3676.036,4893.081 3667.197,4933.22 3641.631,4975.208C3628.748,4996.365 3619.165,5005.417 3618.864,5005.724C3600.081,5024.914 3575.913,5046.601 3550.976,5066.852C3550.602,5067.525 3549.155,5069.878 3545.984,5070.676C3545.559,5070.783 3545.124,5070.856 3544.688,5070.891C3471.966,5076.594 3399.24,5082.253 3326.513,5087.89C3323.787,5088.101 3322.148,5086.448 3321.869,5086.166C3321.592,5085.887 3319.96,5084.239 3320.197,5081.543C3320.287,5080.508 3320.646,5079.749 3320.715,5079.603C3320.852,5079.313 3321.057,5079.057 3321.208,5078.774C3321.118,5078.128 3320.348,5075.338 3313.297,5068.988C3285.119,5043.613 3200.522,4999.792 3170.912,4955.089C3164.119,4944.833 3162.733,4934.708 3162.339,4928.588ZM3169.091,4925.999C3169.597,4934.171 3171.234,4942.636 3177.523,4951.532C3209.627,4996.945 3302.843,5040.595 3326.268,5065.951C3327.519,5067.305 3330.957,5071.007 3332.249,5075.573L3539.43,5055.486C3541.229,5053.947 3545.111,5050.654 3555.139,5041.538C3588.763,5010.971 3606.887,4990.593 3607.354,4990.101C3630.675,4965.567 3682.73,4880.337 3666.659,4782.661C3659.664,4740.148 3642.468,4711.363 3635.639,4699.298C3567.445,4578.81 3539.757,4566.842 3538.836,4566.414L3539.389,4564.854L3538.31,4566.186C3538.011,4565.912 3537.646,4565.717 3537.347,4565.443C3537.164,4565.275 3536.476,4564.34 3536.402,4563.242C3536.364,4562.665 3536.952,4556.997 3538.643,4551.098C3544.805,4529.602 3560.265,4521.377 3574.312,4517.717C3558.403,4514.734 3537.928,4514.412 3517.485,4527.422C3507.295,4533.907 3500.934,4541.246 3500.083,4541.866C3498.181,4543.248 3494.852,4542.499 3494.465,4539.237C3494.321,4538.024 3494.335,4535.474 3494.337,4535.146C3494.489,4507.962 3515.063,4493.846 3533.154,4486.241C3487.254,4487.971 3379.003,4502.485 3283.884,4589.61C3278.14,4594.87 3254.735,4616.139 3229.746,4649.466C3226.898,4653.265 3202.05,4685.865 3187.345,4705.617C3147.537,4759.086 3121.729,4796.361 3117.375,4818.373C3114.721,4831.788 3119.475,4838.901 3123.557,4857.4C3131.03,4891.266 3154.315,4915.62 3158.87,4920.033C3161.689,4921.097 3164.542,4922.07 3167.355,4923.15C3167.468,4923.193 3168.207,4923.718 3168.592,4924.35C3168.692,4924.515 3168.795,4924.684 3168.851,4924.869C3168.962,4925.236 3168.979,4925.627 3169.09,4925.994L3169.091,4925.994C3169.091,4925.996 3169.091,4925.998 3169.091,4925.999Z" style="fill:rgb(35,56,77);"/>
            <g transform="matrix(0.760043,0,0,0.760043,771.279581,1164.22901)">
                <path d="M3214.239,4779.06C3214.239,4779.06 3155.285,4642.822 3041.075,4665.285C2987.985,4675.727 2972.585,4719.104 2965.453,4731.89C2966.001,4768.952 2980.776,4911.911 3094.837,4961.591C3151.931,4986.458 3185.259,4966.969 3185.259,4966.969" style="fill:rgb(167,191,214);"/>
                <path d="M2973.598,4733.779C2974.746,4770.594 2985,4832.188 3016.788,4882.654C3018.478,4885.337 3030.961,4906.785 3051.797,4926.289C3062.534,4936.339 3080.627,4951.115 3106.72,4961.719C3118.306,4966.427 3144.121,4975.664 3171.41,4970.596C3180.205,4968.962 3184.98,4966.496 3184.986,4966.497C3185.241,4966.522 3185.475,4966.669 3185.73,4966.694C3185.619,4966.927 3185.641,4967.209 3185.53,4967.443C3185.529,4967.446 3176.874,4973.058 3160.917,4975.471C3140.243,4978.597 3121.488,4974.558 3112.787,4972.385C3098.773,4968.885 3085.685,4962.898 3083.415,4961.86C3057.954,4950.214 3041.914,4936.02 3034.204,4928.775C3029.014,4923.898 3017.114,4912.428 3003.792,4892.365C3003.723,4892.261 3000.312,4887.019 2996.247,4879.71C2957.506,4810.044 2957.34,4732.698 2957.363,4732.031C2957.458,4729.351 2957.938,4728.926 2959.676,4725.493C2968.406,4708.255 2986.996,4667.018 3041.712,4657.386C3120.384,4643.537 3176.268,4699.96 3207.405,4753.229C3215.477,4767.04 3219.553,4776.739 3219.554,4776.746C3219.709,4777.493 3220.008,4778.225 3220.017,4778.989C3220.022,4779.338 3220.047,4781.355 3218.425,4783.057C3216.755,4784.81 3214.695,4784.84 3214.339,4784.845C3211.992,4784.879 3210.524,4783.493 3210.27,4783.253C3209.107,4782.155 3209.24,4782.046 3208.564,4780.6C3203.993,4770.823 3153.873,4668.887 3065.044,4670.309C3058.778,4670.409 3043.029,4671.234 3027.675,4677.053C2992.962,4690.211 2980.71,4719.869 2973.598,4733.779Z" style="fill:rgb(35,56,77);"/>
                <path d="M2992.477,4721.053L2991.556,4720.451C2993.647,4716.739 3005.122,4694.179 3040.835,4696.662C3070.451,4698.721 3096.419,4717.002 3103.233,4721.857C3104.173,4722.527 3111.458,4727.522 3122.269,4737.539C3122.33,4737.596 3127.718,4742.755 3134.484,4750.408C3141.971,4758.879 3147.044,4766.028 3149.078,4768.887C3149.35,4769.269 3156.676,4779.626 3163.184,4791.163C3167.411,4798.657 3176.343,4814.881 3185.387,4840.047C3187.329,4845.449 3190.075,4854.232 3190.092,4854.391C3190.174,4855.148 3190.389,4855.903 3190.336,4856.663C3190.311,4857.007 3190.17,4859.022 3188.536,4860.578C3185.907,4863.084 3182.928,4861.688 3182.485,4861.48C3181.816,4861.167 3181.191,4860.729 3180.676,4860.199C3179.614,4859.11 3179.707,4859.034 3179.104,4857.642C3175.847,4850.131 3166.492,4828.714 3150.879,4804.604C3146.793,4798.293 3138.086,4785.106 3123.756,4768.28C3116.037,4759.216 3111.519,4754.844 3106.768,4749.988C3105.668,4748.864 3100.393,4743.475 3092.427,4736.551C3075.639,4721.961 3061.706,4715.181 3060.635,4714.635C3042.91,4705.594 3023.41,4701.428 3007.232,4709.075C2998.665,4713.125 2993.919,4719.274 2992.477,4721.053Z" style="fill:rgb(35,56,77);"/>
                <path d="M3145.279,4879.749C3145.145,4879.97 3145.194,4880.271 3145.06,4880.492C3145.058,4880.494 3137.967,4885.243 3128.15,4888.896C3095.908,4900.892 3071.436,4887.068 3066.73,4846.882C3065.809,4839.019 3066.597,4832.325 3066.745,4831.069C3067.556,4824.177 3070.263,4812.224 3080.509,4802.759C3100.346,4784.436 3128.818,4791.724 3131.899,4792.455C3132.828,4792.676 3146.281,4795.478 3160.206,4805.262C3164.187,4808.059 3168.195,4811.866 3168.251,4811.969C3168.765,4812.917 3169.666,4813.745 3169.786,4814.817C3169.788,4814.836 3168.905,4817.914 3168.897,4817.919C3167.949,4818.444 3167.126,4819.368 3166.05,4819.487C3164.192,4819.694 3164.218,4819.358 3162.628,4818.369C3148.986,4809.875 3135.272,4808.234 3132.535,4807.862C3122.74,4806.532 3111.655,4807.164 3103.034,4810.939C3095.574,4814.206 3092.091,4818.18 3089.527,4822.039C3082.993,4831.869 3083.406,4845.348 3083.515,4849.138C3084.101,4869.452 3091.4,4876.573 3093.945,4878.864C3095.756,4880.494 3104.602,4888.789 3127.643,4884.49C3137.227,4882.703 3144.539,4879.532 3144.539,4879.532C3144.796,4879.543 3145.022,4879.739 3145.279,4879.749Z" style="fill:rgb(35,56,77);"/>
            </g>
            <g>
                <path d="M3219,4747C3239,4790 3136.275,4897.405 3174,4953C3212,5009 3339.39,5062.872 3326,5082" style="fill:rgb(84,130,176);"/>
                <path d="M3321.552,5078.928C3321.13,5078.875 3320.917,5078.908 3320.405,5078.937C3320.361,5078.611 3319.872,5076.011 3312.762,5069.595C3284.784,5044.349 3199.278,4999.811 3170.138,4955.101C3136.613,4903.663 3211.785,4816.743 3218.959,4766.643C3220.552,4755.519 3218.14,4750.048 3217.216,4747.824L3220.789,4746.168C3223.827,4752.817 3226.209,4763.245 3219.032,4785.552C3202.66,4836.44 3149.679,4910.305 3177.628,4950.544C3208.42,4994.876 3299.284,5038.064 3325.139,5063.615C3328.312,5066.75 3336.409,5075.064 3332.559,5083.779C3332.058,5084.913 3331.441,5085.771 3331.425,5085.797L3321.552,5078.928Z" style="fill:rgb(35,56,77);"/>
            </g>
            <g>
                <path d="M3441,4819C3441,4819 3342.361,4691.381 3310,4710C3237,4752 3223,4912 3223,4912C3223,4912 3226.343,4956.133 3258,4963C3289.657,4969.867 3354,4979 3354,4979C3354,4979 3353.844,5020.594 3315,5082C3276.156,5143.406 3375.099,5213.06 3416,5215C3456.901,5216.94 3573.52,5142.459 3544,5082C3518.907,5030.609 3491.087,4987.693 3506,4978C3506,4978 3604.501,4971.343 3614,4932C3623.499,4892.657 3592.741,4775.31 3544,4779C3496.286,4782.612 3441,4828.348 3441,4819Z" style="fill:rgb(167,191,214);"/>
                <path d="M3444.107,4813.752C3445.979,4812.93 3448.907,4811.592 3451.517,4810.173C3471.249,4799.449 3509.353,4775.926 3543.571,4773.335C3554.826,4772.483 3565.331,4777.016 3574.719,4785.504C3583.308,4793.271 3591.003,4804.432 3597.508,4817.381C3616.614,4855.413 3625.416,4908.921 3619.522,4933.333C3616.316,4946.613 3604.475,4956.958 3588.94,4964.409C3559.743,4978.412 3517.71,4982.704 3508.3,4983.515C3507.588,4984.493 3507.47,4985.887 3507.497,4987.511C3507.561,4991.41 3508.905,4996.289 3511.032,5002.017C3518.186,5021.279 3534.146,5048.871 3549.105,5079.507C3561.892,5105.695 3550.162,5134.531 3527.684,5159.31C3508.493,5180.465 3481.672,5198.685 3457.832,5209.606C3441.346,5217.159 3426.191,5221.171 3415.731,5220.675C3390.105,5219.46 3342.47,5193.088 3317.375,5158.096C3299.966,5133.819 3293.315,5105.654 3310.199,5078.963C3340.213,5031.515 3346.598,4996.297 3347.954,4983.867C3331.927,4981.533 3283.114,4974.261 3256.796,4968.552C3242.347,4965.418 3232.959,4955.615 3227.026,4944.818C3218.627,4929.536 3217.335,4912.429 3217.335,4912.429C3217.312,4912.121 3217.314,4911.812 3217.341,4911.505C3217.341,4911.505 3222.443,4853.177 3242.493,4797.328C3256.167,4759.241 3276.919,4722.479 3307.167,4705.076C3312.237,4702.158 3318.534,4701.697 3325.725,4703.661C3334.547,4706.071 3345.039,4712.296 3356.051,4720.846C3392.573,4749.202 3435.873,4803.296 3444.107,4813.752ZM3435.781,4821.544C3429.658,4813.713 3385.878,4758.388 3349.083,4729.821C3339.472,4722.359 3330.431,4716.725 3322.731,4714.622C3318.905,4713.577 3315.531,4713.372 3312.833,4714.924C3284.681,4731.122 3265.913,4765.719 3253.187,4801.168C3234.694,4852.68 3229.24,4906.355 3228.705,4912.011C3228.956,4914.546 3230.515,4927.576 3236.983,4939.345C3241.45,4947.473 3248.327,4955.089 3259.204,4957.448C3290.727,4964.286 3354.798,4973.375 3354.798,4973.375C3357.607,4973.774 3359.692,4976.184 3359.681,4979.021C3359.681,4979.021 3359.75,5021.885 3319.801,5085.037C3305.61,5107.471 3311.976,5131.069 3326.609,5151.474C3349.578,5183.503 3392.813,5208.213 3416.269,5209.325C3425.442,5209.76 3438.642,5205.9 3453.1,5199.276C3475.676,5188.934 3501.095,5171.709 3519.269,5151.676C3538.309,5130.687 3549.726,5106.675 3538.895,5084.493C3521.107,5048.062 3502.071,5015.786 3497.367,4996.363C3494.632,4985.069 3496.757,4977.232 3502.904,4973.237C3503.716,4972.709 3504.65,4972.397 3505.617,4972.332C3505.617,4972.332 3540.294,4969.998 3570.04,4959.813C3579.616,4956.535 3588.681,4952.453 3595.782,4947.295C3602.115,4942.695 3606.878,4937.294 3608.478,4930.667C3613.982,4907.867 3605.199,4858.001 3587.355,4822.481C3581.544,4810.913 3574.771,4800.87 3567.098,4793.932C3560.223,4787.715 3552.671,4784.041 3544.429,4784.665C3506.964,4787.501 3464.848,4817.051 3449.458,4823.959C3445.727,4825.634 3442.866,4826.084 3441.258,4825.864L3438.655,4824.981L3436.929,4823.538L3435.797,4821.631L3435.781,4821.544Z" style="fill:rgb(35,56,77);"/>
                <g transform="matrix(0.829279,0,0,0.829279,579.403593,827.797829)">
                    <path d="M3383.157,5190.932C3388.372,5187.737 3393.588,5180.847 3398.803,5169.795C3398.803,5169.795 3414.985,5134.584 3424.961,5134.559C3434.937,5134.535 3455.528,5136.03 3455.528,5136.03C3455.528,5136.03 3486.126,5126.204 3490.729,5127.883C3495.333,5129.563 3502.169,5143.539 3490.004,5157.911C3477.84,5172.282 3474.46,5170.72 3474.46,5170.72C3474.46,5170.72 3492.164,5181.993 3493.933,5191.5C3495.701,5201.007 3486.687,5222.243 3476.831,5227.645C3466.976,5233.047 3438.078,5236.968 3431.807,5236.084C3423.7,5234.941 3398.86,5212.196 3401.495,5210.04C3401.655,5198.026 3392.871,5194.06 3383.157,5190.932" style="fill:rgb(104,144,185);"/>
                </g>
                <g transform="matrix(0.829279,0,0,0.829279,579.403593,827.797829)">
                    <path d="M3394.396,5184.984C3394.396,5184.984 3419.721,5162.4 3429.399,5161.042C3439.078,5159.684 3434.995,5170.485 3441.821,5173.346C3453.565,5178.267 3468.848,5158.474 3469.264,5156.288C3469.864,5153.135 3481.358,5160.363 3488.32,5150.345C3495.282,5140.326 3492.735,5134.644 3492.735,5134.644C3499.817,5150.413 3492.174,5161.273 3477.517,5169.795C3477.517,5169.795 3480.133,5175.278 3486.009,5182.423C3491.886,5189.569 3492.358,5202.962 3486.009,5204.925C3479.66,5206.888 3450.898,5212.81 3435.14,5208.151C3425.575,5205.323 3394.393,5188.267 3389.992,5189.342C3385.591,5190.418 3394.396,5184.984 3394.396,5184.984Z" style="fill:rgb(63,100,137);"/>
                </g>
                <path d="M3464.754,4988.912C3465.108,4988.703 3465.416,4988.421 3465.77,4988.212C3465.772,4988.211 3472.655,4988.056 3477.038,4984.944C3479.651,4983.088 3480.265,4980.806 3479.572,4977.657C3479.455,4977.125 3479.575,4976.588 3479.223,4974.567C3479.218,4974.534 3479.465,4973.4 3476.285,4971.428C3473.158,4969.49 3469.48,4968.329 3465.538,4967.367C3450.025,4963.584 3425.924,4963.137 3407.996,4966.503C3394.045,4969.122 3390.169,4973.168 3388.792,4974.448C3388.558,4974.666 3387.865,4975.31 3386.037,4977.332C3385.762,4977.637 3384.023,4979.737 3383.893,4980.62C3383.884,4980.679 3383.423,4981.892 3386.312,4984.851C3389.018,4987.622 3392.95,4989.543 3392.956,4989.553C3393.186,4989.883 3393.379,4990.239 3393.608,4990.569C3393.226,4990.758 3392.892,4991.035 3392.51,4991.224C3392.49,4991.234 3390.372,4991.23 3388.256,4990.948C3382.892,4990.235 3380.354,4988.752 3378.464,4987.151C3374.526,4983.815 3374.57,4979.62 3374.578,4978.889C3374.611,4975.777 3375.846,4973.33 3376.069,4972.889C3377.546,4969.961 3379.161,4968.396 3379.574,4967.964C3383.559,4963.791 3389.054,4959.403 3402.259,4956.372C3403.509,4956.085 3419.242,4952.051 3444.786,4954.282C3464.218,4955.979 3474.234,4960.089 3476.304,4960.89C3488.035,4965.426 3488.841,4971.104 3489.329,4974.7C3489.597,4976.681 3489.51,4977.434 3489.483,4977.671C3488.334,4987.589 3480.568,4993.338 3467.579,4990.417C3466.443,4990.161 3465.536,4989.881 3465.533,4989.878C3465.248,4989.578 3465.039,4989.212 3464.754,4988.912Z" style="fill:rgb(35,56,77);"/>
                <path d="M3463.401,5115.304C3463.359,5115.571 3463.319,5115.818 3463.316,5115.82C3462.201,5116.628 3462.019,5117.022 3460.945,5116.156C3460.638,5115.909 3459.579,5114.81 3460.923,5113.133C3462.69,5110.927 3471.287,5105.029 3475.035,5097.955C3476.302,5095.564 3478.08,5091.445 3476.529,5085.93C3475.754,5083.176 3475.05,5082.569 3474.81,5082.362C3471.057,5079.125 3458.25,5083.783 3447.935,5089.693C3447.085,5090.18 3446.311,5090.733 3445.244,5090.801C3443.746,5090.896 3441.846,5089.658 3433.532,5088.596C3429.018,5088.02 3423.846,5087.916 3421.808,5088.448C3417.964,5089.45 3412.393,5093.998 3406.235,5102.636C3405.933,5103.059 3402.836,5107.22 3399.617,5112.935C3399.203,5113.669 3398.835,5114.358 3398.834,5114.359C3398.462,5114.571 3398.013,5114.622 3397.641,5114.834C3397.537,5114.395 3397.299,5113.995 3397.194,5113.556C3397.189,5113.534 3399.887,5105.754 3403.568,5099.108C3406.964,5092.978 3413.518,5082.67 3422.684,5081.62C3423.264,5081.554 3432.234,5080.295 3444.308,5082.934C3450.413,5079.154 3464.259,5071.49 3474.174,5073.274C3481.579,5074.605 3483.546,5080.32 3484.452,5083.404C3486.602,5090.716 3484.383,5096.285 3482.215,5099.943C3480.953,5102.074 3477.658,5106.209 3472.387,5109.813C3468.507,5112.465 3465.675,5113.764 3463.401,5115.304Z" style="fill:rgb(35,56,77);"/>
                <path d="M3428.367,5117.627C3428.27,5117.875 3428.337,5118.168 3428.241,5118.416C3428.235,5118.43 3427.117,5119.765 3425.997,5120.903C3398.822,5148.516 3345.197,5126.165 3335.171,5095.892C3333.542,5090.973 3333.517,5087.199 3333.512,5085.798C3333.507,5084.641 3334.265,5083.91 3334.391,5083.788C3334.401,5083.778 3336.434,5082.98 3336.44,5082.983C3337.109,5083.274 3337.936,5083.337 3338.442,5083.862C3339.492,5084.951 3339.25,5085.113 3339.226,5086.625C3338.775,5115.608 3390.446,5145.346 3421.178,5123.601C3424.963,5120.923 3427.592,5117.873 3427.606,5117.866C3427.848,5117.755 3428.125,5117.738 3428.367,5117.627Z" style="fill:rgb(35,56,77);"/>
                <g transform="matrix(0.829279,0,0,0.829279,579.403593,827.797829)">
                    <path d="M3462.44,5166.141C3462.482,5166.374 3462.576,5166.596 3462.619,5166.828C3462.622,5166.846 3461.857,5168.595 3461.084,5169.991C3460.62,5170.83 3454.481,5182.883 3444.819,5183.177C3439.721,5183.333 3432.678,5179.629 3433.977,5171.766C3434.145,5170.755 3434.768,5169.271 3434.817,5169.229C3434.993,5169.072 3435.236,5169.004 3435.412,5168.848C3435.519,5169.057 3435.688,5169.23 3435.794,5169.439C3435.835,5169.518 3436.198,5174.445 3440.154,5176.041C3441.205,5176.466 3441.697,5176.631 3444.014,5176.983C3444.891,5177.117 3449.527,5178.05 3457.328,5170.97C3459.374,5169.113 3461.086,5167.13 3461.489,5166.646C3461.579,5166.538 3461.633,5166.387 3461.757,5166.321C3462.075,5166.153 3462.123,5166.309 3462.44,5166.141Z" style="fill:rgb(35,56,77);"/>
                </g>
                <path d="M3445.683,5118.267C3445.734,5118.078 3445.684,5117.87 3445.735,5117.681C3445.736,5117.68 3446.064,5117.352 3446.509,5117.012C3455.812,5109.893 3480.068,5120.163 3481.346,5138.765C3482.114,5149.933 3474.013,5158.646 3472.717,5160.098C3468.31,5165.033 3460.989,5171.073 3453.114,5174.181C3442.489,5178.373 3433.99,5176.618 3429.911,5175.466C3421.288,5173.031 3415.072,5167.46 3414.068,5166.592C3412.068,5164.864 3406.054,5159.514 3400.817,5150.389C3400.234,5149.374 3399.841,5148.599 3399.841,5148.595C3399.839,5148.399 3399.974,5148.219 3399.972,5148.023C3400.14,5148.122 3400.375,5148.054 3400.543,5148.153C3400.607,5148.191 3403.707,5152.331 3410.315,5157.68C3425.611,5170.061 3437.777,5168.214 3439.152,5168.098C3445.339,5167.575 3451.979,5164.855 3460.496,5158.651C3465.509,5155 3479.112,5144.57 3472.836,5131.006C3467.885,5120.304 3453.348,5113.531 3446.419,5118.212C3446.367,5118.247 3446.328,5118.314 3446.266,5118.318C3445.97,5118.34 3445.976,5118.245 3445.683,5118.267Z" style="fill:rgb(35,56,77);"/>
                <path d="M3392,4907.579C3407.248,4868.485 3359.613,4817.751 3325,4826C3286.924,4835.074 3275.36,4893.324 3303.55,4921.233C3329.484,4946.91 3373.203,4955.772 3392,4907.579Z" style="fill:white;"/>
                <path d="M3396.974,4909.519C3388.676,4930.794 3375.745,4941.77 3361.662,4945.738C3340.808,4951.613 3316.747,4941.812 3299.794,4925.027C3284.42,4909.806 3279.705,4886.358 3284.206,4865.431C3288.768,4844.223 3302.718,4825.822 3323.762,4820.807C3342.741,4816.284 3365.519,4827.403 3381.233,4845.54C3396.868,4863.586 3405.292,4888.191 3396.974,4909.519ZM3387.026,4905.639C3393.956,4887.872 3386.188,4867.565 3373.163,4852.532C3360.217,4837.589 3341.874,4827.467 3326.238,4831.193C3309.206,4835.252 3298.337,4850.512 3294.645,4867.676C3290.893,4885.12 3294.491,4904.751 3307.306,4917.44C3321.475,4931.467 3341.338,4940.371 3358.767,4935.461C3370.205,4932.238 3380.287,4922.919 3387.026,4905.639Z" style="fill:rgb(35,56,77);"/>
                <path d="M3459,4880.599C3455.524,4878.568 3451.512,4922.619 3476,4942.91C3489.292,4953.923 3530.303,4967.237 3556,4934C3597.048,4880.908 3536.556,4849.795 3531.345,4845.471L3493,4868L3459,4880.599Z" style="fill:white;"/>
                <path d="M3459.095,4879.684L3492.109,4866.121C3502.78,4859.634 3513.266,4852.846 3523.766,4846.083C3525.691,4844.844 3527.495,4843.426 3529.375,4842.119C3531.269,4840.802 3533.096,4841.633 3533.39,4841.767C3533.661,4841.89 3533.635,4841.938 3536.661,4843.544C3537.322,4843.894 3538.163,4844.222 3542.378,4847.011C3592.414,4880.122 3574.347,4916.864 3568.757,4927.026C3567.314,4929.649 3561.804,4939.263 3553.69,4946.632C3524.98,4972.709 3485.793,4959.51 3471.801,4947.308C3459.985,4937.002 3455.567,4922.904 3453.761,4915.438C3451.188,4904.798 3451.464,4895.313 3451.516,4893.553C3451.604,4890.547 3451.843,4888.363 3451.955,4887.426C3451.971,4887.292 3451.957,4887.151 3452.004,4887.025C3452.005,4887.023 3452.592,4885.998 3453.249,4884.971C3456.852,4879.328 3458.449,4879.354 3459.095,4879.684ZM3458.593,4881.3C3458.571,4881.343 3458.579,4881.337 3458.604,4881.307C3458.605,4881.306 3458.606,4881.305 3458.607,4881.304C3458.602,4881.303 3458.598,4881.301 3458.593,4881.3ZM3459.042,4881.422C3459.133,4881.509 3459.214,4881.567 3459.259,4881.73C3459.454,4882.452 3459.566,4883.854 3461.288,4887.878C3461.333,4887.983 3460.849,4893.201 3461.979,4901.597C3464.472,4920.119 3472.104,4929.872 3472.499,4930.422C3477.55,4937.452 3482.839,4940.605 3487.565,4942.823C3501.455,4949.34 3526.622,4953.735 3545.292,4935.697C3545.38,4935.612 3550.031,4931.483 3555.54,4922.814C3566.28,4905.91 3570.521,4884.145 3543.496,4860.502C3538.422,4856.063 3533.58,4852.795 3533.197,4852.501C3532.926,4852.293 3531.566,4851.203 3530.767,4850.561C3518.412,4856.878 3506.282,4863.632 3493.891,4869.879C3492.564,4870.548 3491.067,4870.811 3489.655,4871.276C3463.527,4879.893 3463.502,4879.818 3459.282,4881.359C3459.176,4881.398 3459.103,4881.417 3459.042,4881.422Z" style="fill:rgb(35,56,77);"/>
                <path d="M3439.554,5072.101C3439.496,5071.873 3439.266,5071.713 3439.207,5071.485C3439.207,5071.483 3439.276,5070.159 3439.332,5067.99C3439.899,5045.882 3437.873,5035.34 3437.492,5032.978C3436.226,5025.138 3433.604,5014.029 3431.613,5007.592C3431.603,5007.56 3431.575,5007.528 3431.584,5007.496C3431.66,5007.211 3431.711,5007.231 3431.787,5006.946C3431.941,5007.067 3432.184,5007.03 3432.338,5007.151C3432.35,5007.16 3441.516,5021.787 3443.308,5035.308C3443.586,5037.408 3443.805,5039.631 3443.623,5045.412C3443.605,5045.972 3443.349,5051.752 3442.396,5058.439C3441.309,5066.06 3440.067,5071.584 3440.053,5071.599C3439.894,5071.773 3439.713,5071.927 3439.554,5072.101Z" style="fill:rgb(35,56,77);"/>
                <path d="M3480.022,5077.682C3479.51,5078.546 3479.461,5078.569 3478.485,5078.809C3477.285,5079.106 3477.22,5079.006 3476.232,5078.259C3475.275,5077.537 3471.185,5074.503 3464.42,5060.25C3463.158,5057.593 3462.298,5055.56 3462.298,5055.558C3462.322,5055.364 3462.303,5055.089 3462.477,5054.999C3462.813,5054.826 3463.01,5055.138 3463.035,5055.178C3466.2,5060.191 3474.141,5071.8 3479.188,5074.267C3480.02,5074.673 3480.263,5075.659 3480.299,5075.806C3480.538,5076.775 3480.529,5076.825 3480.022,5077.682Z" style="fill:rgb(35,56,77);"/>
                <path d="M3434.713,4991.154C3433.794,4988.369 3430.884,4985.77 3441.293,4980.811C3451.701,4975.852 3459.782,4972.638 3460.608,4978.974C3461.434,4985.31 3456.568,4986.321 3452.619,4986.596C3448.67,4986.871 3443.006,4991.004 3441.293,4992.565C3439.579,4994.126 3435.326,4993.015 3434.713,4991.154Z" style="fill:rgb(35,56,77);"/>
                <path d="M3398,4982.005C3397.236,4983.492 3407.515,4992.405 3410.155,4993.306C3415.909,4995.27 3419.432,4988.004 3414.738,4984.381C3412.548,4982.69 3398.764,4980.517 3398,4982.005Z" style="fill:rgb(35,56,77);"/>
                <path d="M3442.137,4849.328C3442.285,4849.644 3442.526,4849.91 3442.674,4850.225C3442.728,4850.34 3442.652,4850.349 3442.733,4851.806C3442.782,4852.68 3443.065,4856.636 3443.736,4859.995C3444.288,4862.766 3445.297,4865.974 3446.183,4867.836C3446.945,4869.439 3448.149,4871.465 3450.441,4872.822C3450.696,4872.973 3451.753,4873.599 3454,4873.842C3455.118,4873.962 3456.247,4873.859 3456.441,4873.841C3459.675,4873.546 3469.619,4873.852 3484.246,4865.988C3492.848,4861.363 3501.061,4855.352 3507.804,4850.742C3515.091,4845.759 3524.34,4839.561 3537.319,4836.309C3545.378,4834.289 3556.396,4832.941 3568.632,4838.454C3572.657,4840.267 3576.687,4843.169 3579.284,4845.768C3579.935,4846.421 3580.25,4846.607 3580.288,4846.69C3580.485,4847.112 3580.829,4847.51 3580.835,4847.976C3580.836,4847.99 3580.317,4849.285 3580.31,4849.288C3579.884,4849.471 3579.492,4849.825 3579.028,4849.831C3577.929,4849.846 3578.05,4849.495 3577.171,4848.836C3577.083,4848.77 3575.83,4847.982 3574.46,4847.312C3573.712,4846.946 3570.006,4845.133 3564.575,4844.055C3558.542,4842.857 3548.428,4842.633 3537.383,4846.676C3521.299,4852.564 3512.217,4862.965 3496.306,4873.244C3479.797,4883.911 3465.994,4885.384 3463.797,4885.666C3458.603,4886.333 3456.274,4886.176 3455.62,4886.132C3451.181,4885.833 3447.324,4884.531 3444.015,4881.59C3442.778,4880.491 3438.006,4876.237 3437.884,4865.76C3437.874,4864.897 3438.014,4859.451 3440.122,4853.112C3440.756,4851.203 3441.323,4849.867 3441.328,4849.863C3441.566,4849.644 3441.899,4849.547 3442.137,4849.328Z" style="fill:rgb(35,56,77);"/>
                <path d="M3411.332,4829.04C3412.121,4828.771 3412.164,4828.776 3412.912,4829.144C3413.826,4829.594 3413.758,4829.718 3414.078,4830.688C3414.794,4832.853 3415.501,4834.322 3416.493,4837.933C3422.241,4858.835 3411.372,4864.479 3402.41,4864.124C3386.839,4863.509 3367.255,4836.017 3342.455,4808.216C3341.631,4807.292 3337.086,4802.197 3331.921,4796.88C3331.527,4796.475 3324.967,4789.699 3318.899,4784.668C3318.586,4784.409 3313.692,4780.402 3312.491,4779.66C3310.785,4778.606 3307.963,4777.338 3302.027,4779.341C3301.8,4779.418 3297.588,4780.793 3291.853,4784.704C3290.061,4785.926 3284.748,4789.414 3276.361,4797.605C3272.433,4801.441 3272.629,4801.824 3271.293,4802.077C3271.277,4802.08 3269.76,4801.816 3269.756,4801.809C3269.484,4801.366 3269.043,4800.987 3268.946,4800.476C3268.727,4799.313 3268.906,4799.304 3269.446,4798.253C3272.275,4792.745 3275.374,4788.273 3275.949,4787.443C3281.686,4779.165 3286.176,4774.814 3289.726,4771.862C3296.917,4765.882 3302.983,4764.54 3304.264,4764.256C3315.245,4761.827 3322.121,4767.304 3324.703,4769.152C3333.47,4775.43 3342.075,4784.896 3342.465,4785.314C3360.384,4804.525 3375.698,4829.047 3389.142,4844.043C3399.042,4855.086 3403.005,4855.103 3405.45,4854.981C3407.337,4854.887 3411.525,4854.411 3411.569,4843.538C3411.584,4839.926 3411.059,4836.031 3410.402,4832.873C3410.292,4832.346 3410.036,4831.688 3410.038,4831.66C3410.106,4830.204 3410.089,4830.201 3410.144,4830.088C3410.512,4829.34 3410.543,4829.309 3411.332,4829.04Z" style="fill:rgb(35,56,77);"/>
            </g>
            <g transform="matrix(1.38485,0,0,1.450766,-820.073406,-2500.65265)">
                <circle cx="3108.329" cy="5102.936" r="12.832" style="fill:rgb(35,56,77);stroke:rgb(35,56,77);stroke-width:0.58px;"/>
            </g>
            <g transform="matrix(1.38485,0,0,1.450766,-934.327339,-2510.335169)">
                <circle cx="3108.329" cy="5102.936" r="12.832" style="fill:rgb(35,56,77);stroke:rgb(35,56,77);stroke-width:0.58px;"/>
            </g>
        </g>
    </g>
</svg>
