<?xml version="1.0" encoding="UTF-8" standalone="no"?>
<!DOCTYPE svg PUBLIC "-//W3C//DTD SVG 1.1//EN" "http://www.w3.org/Graphics/SVG/1.1/DTD/svg11.dtd">
<svg width="100%" height="100%" viewBox="0 0 1282 1282" version="1.1" xmlns="http://www.w3.org/2000/svg" xmlns:xlink="http://www.w3.org/1999/xlink" xml:space="preserve" xmlns:serif="http://www.serif.com/" style="fill-rule:evenodd;clip-rule:evenodd;stroke-linejoin:round;stroke-miterlimit:2;">
    <g transform="matrix(1,0,0,1,-2526,-3017.47)">
        <path d="M3166.68,3042.29C2826.79,3042.29 2550.83,3318.25 2550.83,3658.15C2550.83,3998.05 2826.79,4274 3166.68,4274C3506.58,4274 3782.54,3998.05 3782.54,3658.15C3782.54,3318.25 3506.58,3042.29 3166.68,3042.29ZM3438.2,4041.76C3414.93,3964.52 3358.55,3901.33 3285.48,3867.98C3266.58,3859.35 3253.2,3841.9 3249.78,3821.4C3246.36,3800.91 3253.36,3780.05 3268.44,3765.76C3296.94,3738.75 3314.83,3700.48 3314.83,3658.15C3314.83,3576.39 3248.45,3510.01 3166.68,3510.01C3084.92,3510.01 3018.54,3576.39 3018.54,3658.15C3018.54,3700.47 3036.34,3738.66 3064.84,3765.67C3079.92,3779.96 3086.91,3800.81 3083.49,3821.31C3080.07,3841.81 3066.7,3859.26 3047.79,3867.89C2974.72,3901.24 2918.41,3964.49 2895.16,4041.75C2971.86,4096.17 3065.57,4128.17 3166.68,4128.17C3267.8,4128.17 3361.51,4096.17 3438.2,4041.76ZM3535.9,3948.89C3599.02,3868.88 3636.7,3767.88 3636.7,3658.15C3636.7,3398.74 3426.1,3188.13 3166.68,3188.13C2907.27,3188.13 2696.66,3398.74 2696.66,3658.15C2696.66,3767.88 2734.35,3868.88 2797.45,3948.87C2827.26,3886.4 2872.77,3832.68 2928.99,3792.74C2906.43,3753.01 2893.54,3707.07 2893.54,3658.15C2893.54,3507.4 3015.93,3385.01 3166.68,3385.01C3317.43,3385.01 3439.83,3507.4 3439.83,3658.15C3439.83,3707.07 3426.89,3753.06 3404.3,3792.83C3460.53,3832.75 3506.07,3886.45 3535.9,3948.89Z" style="fill:rgb(96,125,255);stroke:black;stroke-width:49.66px;"/>
    </g>
</svg>
