<?xml version="1.0" encoding="UTF-8" standalone="no"?>
<!DOCTYPE svg PUBLIC "-//W3C//DTD SVG 1.1//EN" "http://www.w3.org/Graphics/SVG/1.1/DTD/svg11.dtd">
<svg width="100%" height="100%" viewBox="0 0 1198 1198" version="1.1" xmlns="http://www.w3.org/2000/svg" xmlns:xlink="http://www.w3.org/1999/xlink" xml:space="preserve" xmlns:serif="http://www.serif.com/" style="fill-rule:evenodd;clip-rule:evenodd;stroke-linejoin:round;stroke-miterlimit:2;">
    <g transform="matrix(1,0,0,1,-42.1002,-42.0902)">
        <g transform="matrix(1,0,0,1,-2526,-3017.47)">
            <g transform="matrix(0.934289,0,0,0.934289,208.087,240.381)">
                <path d="M3166.68,3014.42C2811.41,3014.42 2522.96,3302.87 2522.96,3658.15C2522.96,4013.43 2811.41,4301.87 3166.68,4301.87C3521.96,4301.87 3810.41,4013.43 3810.41,3658.15C3810.41,3302.87 3521.96,3014.42 3166.68,3014.42ZM3404.87,4030.64C3336.12,4074.73 3254.36,4100.3 3166.68,4100.3C3079.01,4100.3 2997.24,4074.73 2928.48,4030.63C2952.4,3969.8 2999.7,3920.47 3059.36,3893.24C3086.7,3880.77 3106.03,3855.54 3110.98,3825.9C3115.93,3796.25 3105.82,3766.1 3084.01,3745.44C3060.87,3723.51 3046.41,3692.51 3046.41,3658.15C3046.41,3591.77 3100.3,3537.88 3166.68,3537.88C3233.07,3537.88 3286.96,3591.77 3286.96,3658.15C3286.96,3692.53 3272.41,3723.6 3249.27,3745.53C3227.47,3766.19 3217.35,3796.36 3222.29,3825.99C3227.24,3855.62 3246.58,3880.86 3273.9,3893.33C3273.91,3893.33 3273.91,3893.33 3273.91,3893.33C3333.57,3920.56 3380.93,3969.84 3404.87,4030.64L3404.87,4030.64ZM3539.04,3896.53C3512.7,3853.81 3479.05,3815.96 3439.82,3784.69C3457.69,3746.2 3467.7,3703.31 3467.7,3658.15C3467.7,3492.02 3332.81,3357.14 3166.68,3357.14C3000.55,3357.14 2865.67,3492.02 2865.67,3658.15C2865.67,3703.3 2875.64,3746.15 2893.48,3784.61C2854.25,3815.89 2820.63,3853.75 2794.3,3896.49C2750.15,3827.71 2724.53,3745.9 2724.53,3658.15C2724.53,3414.12 2922.65,3216 3166.68,3216C3410.72,3216 3608.83,3414.12 3608.83,3658.15C3608.83,3745.91 3583.21,3827.73 3539.04,3896.53L3539.04,3896.53Z" style="fill:rgb(0,255,0);stroke:black;stroke-width:49.66px;"/>
            </g>
        </g>
    </g>
</svg>
