<?xml version="1.0" encoding="UTF-8" standalone="no"?>
<!DOCTYPE svg PUBLIC "-//W3C//DTD SVG 1.1//EN" "http://www.w3.org/Graphics/SVG/1.1/DTD/svg11.dtd">
<svg width="100%" height="100%" viewBox="0 0 7016 9934" version="1.1" xmlns="http://www.w3.org/2000/svg" xmlns:xlink="http://www.w3.org/1999/xlink" xml:space="preserve" xmlns:serif="http://www.serif.com/" style="fill-rule:evenodd;clip-rule:evenodd;stroke-linecap:round;stroke-linejoin:round;stroke-miterlimit:1.5;">
    <path d="M3002.85,3245.87C2983.8,3244.76 2964.71,3244.76 2945.66,3245.87L2927.8,3316.5C2914.58,3317.96 2901.44,3320.05 2888.41,3322.74L2849.6,3261.08C2831.14,3265.91 2812.98,3271.81 2795.21,3278.75L2800.05,3351.45C2787.93,3356.93 2776.07,3362.97 2764.52,3369.56L2708.55,3322.91C2692.49,3333.21 2677.04,3344.43 2662.29,3356.52L2689.36,3424.17C2679.52,3433.12 2670.11,3442.53 2661.16,3452.37L2593.51,3425.3C2581.42,3440.05 2570.2,3455.5 2559.9,3471.56L2606.55,3527.53C2599.96,3539.08 2593.91,3550.94 2588.44,3563.07L2515.74,3558.22C2508.8,3575.99 2502.9,3594.15 2498.07,3612.61L2559.73,3651.42C2557.03,3664.45 2554.95,3677.59 2553.49,3690.81L2482.86,3708.68C2481.75,3727.72 2481.75,3746.81 2482.86,3765.86L2553.49,3783.72C2554.95,3796.94 2557.03,3810.09 2559.73,3823.11L2498.07,3861.93C2502.9,3880.38 2508.8,3898.54 2515.74,3916.31L2588.44,3911.47C2593.91,3923.59 2599.96,3935.45 2606.55,3947L2559.9,4002.97C2570.2,4019.03 2581.42,4034.48 2593.51,4049.24L2661.16,4022.17C2670.11,4032.01 2679.52,4041.41 2689.36,4050.37L2662.29,4118.01C2677.04,4130.1 2692.49,4141.33 2708.55,4151.62L2764.52,4104.98C2776.07,4111.57 2787.93,4117.61 2800.05,4123.08L2795.21,4195.78C2812.98,4202.72 2831.14,4208.62 2849.6,4213.45L2888.41,4151.79C2901.44,4154.49 2914.58,4156.57 2927.8,4158.03L2945.66,4228.67C2964.71,4229.78 2983.8,4229.78 3002.85,4228.67L3020.71,4158.03C3033.93,4156.57 3047.08,4154.49 3060.1,4151.79L3098.91,4213.45C3117.37,4208.62 3135.53,4202.72 3153.3,4195.78L3148.46,4123.08C3160.58,4117.61 3172.44,4111.57 3183.99,4104.98L3239.96,4151.62C3256.02,4141.33 3271.47,4130.1 3286.23,4118.01L3259.16,4050.37C3268.99,4041.41 3278.41,4032.01 3287.36,4022.17L3355,4049.24C3367.09,4034.48 3378.32,4019.03 3388.61,4002.97L3341.97,3947C3348.56,3935.45 3354.6,3923.59 3360.07,3911.47L3432.77,3916.31C3439.71,3898.54 3445.61,3880.38 3450.44,3861.93L3388.78,3823.11C3391.48,3810.09 3393.56,3796.94 3395.02,3783.72L3465.66,3765.86C3466.77,3746.81 3466.77,3727.72 3465.66,3708.68L3395.02,3690.81C3393.56,3677.59 3391.48,3664.45 3388.78,3651.42L3450.44,3612.61C3445.61,3594.15 3439.71,3575.99 3432.77,3558.22L3360.07,3563.07C3354.6,3550.94 3348.56,3539.08 3341.97,3527.53L3388.61,3471.56C3378.32,3455.5 3367.09,3440.05 3355,3425.3L3287.36,3452.37C3278.41,3442.53 3268.99,3433.12 3259.16,3424.17L3286.23,3356.52C3271.47,3344.43 3256.02,3333.21 3239.96,3322.91L3183.99,3369.56C3172.44,3362.97 3160.58,3356.93 3148.46,3351.45L3153.3,3278.75C3135.53,3271.81 3117.37,3265.91 3098.91,3261.08L3060.1,3322.74C3047.08,3320.05 3033.93,3317.96 3020.71,3316.5L3002.85,3245.87ZM2974.26,3422.24C3148.12,3422.24 3289.28,3563.4 3289.28,3737.27C3289.28,3911.14 3148.12,4052.3 2974.26,4052.3C2800.39,4052.3 2659.23,3911.14 2659.23,3737.27C2659.23,3563.4 2800.39,3422.24 2974.26,3422.24Z" style="fill:rgb(189,189,189);stroke:black;stroke-width:29.17px;"/>
    <g transform="matrix(1,0,0,1,387.841,-345.732)">
        <path d="M2303.2,4402.95L2303.2,3980.52C2303.2,3980.52 2367.67,4045 2367.67,4045C2392.47,4069.79 2432.67,4069.79 2457.46,4045L2522.92,3979.54C2522.92,3979.54 2522.92,4314.36 2522.92,4314.36L2649.91,4314.36L2649.91,3826.25C2649.91,3800.57 2634.44,3777.42 2610.71,3767.59C2586.99,3757.76 2559.68,3763.19 2541.52,3781.35L2412.57,3910.3C2412.57,3910.3 2284.6,3782.34 2284.6,3782.34C2266.44,3764.18 2239.13,3758.74 2215.4,3768.57C2191.68,3778.4 2176.21,3801.55 2176.21,3827.23L2176.21,4402.95L2303.2,4402.95Z" style="fill:rgb(84,130,176);stroke:rgb(46,73,99);stroke-width:33.33px;"/>
    </g>
    <g transform="matrix(-1,0,0,1,5560.91,-345.732)">
        <path d="M2303.2,4402.95L2303.2,3980.52C2303.2,3980.52 2367.67,4045 2367.67,4045C2392.47,4069.79 2432.67,4069.79 2457.46,4045L2522.92,3979.54C2522.92,3979.54 2522.92,4314.36 2522.92,4314.36L2649.91,4314.36L2649.91,3826.25C2649.91,3800.57 2634.44,3777.42 2610.71,3767.59C2586.99,3757.76 2559.68,3763.19 2541.52,3781.35L2412.57,3910.3C2412.57,3910.3 2284.6,3782.34 2284.6,3782.34C2266.44,3764.18 2239.13,3758.74 2215.4,3768.57C2191.68,3778.4 2176.21,3801.55 2176.21,3827.23L2176.21,4402.95L2303.2,4402.95Z" style="fill:rgb(255,120,10);stroke:rgb(92,40,0);stroke-width:33.33px;"/>
    </g>
    <path d="M2974.22,3417.02L2974.38,3417.02L2974.53,3417.02C2982.62,3417.06 2990.78,3418.64 2998.55,3421.86C3022.28,3431.68 3037.75,3454.84 3037.75,3480.52L3037.75,3968.62L2911,3968.62L2911,3480.52C2911,3454.84 2926.47,3431.68 2950.2,3421.86C2957.97,3418.64 2966.13,3417.06 2974.22,3417.02Z" style="fill:rgb(84,130,176);fill-opacity:0.5;stroke:rgb(46,73,99);stroke-width:33.33px;stroke-linecap:butt;"/>
    <g transform="matrix(-1,0,0,1,5948.75,-0.000673291)">
        <path d="M2974.38,3968.62L2911,3968.62L2911,3480.52C2911,3454.84 2926.47,3431.68 2950.2,3421.86C2957.97,3418.64 2966.13,3417.06 2974.22,3417.02" style="fill:none;stroke:rgb(92,40,0);stroke-width:33.33px;stroke-linecap:butt;"/>
    </g>
</svg>
