<?xml version="1.0" encoding="UTF-8" standalone="no"?>
<!DOCTYPE svg PUBLIC "-//W3C//DTD SVG 1.1//EN" "http://www.w3.org/Graphics/SVG/1.1/DTD/svg11.dtd">
<svg width="100%" height="100%" viewBox="0 0 800 800" version="1.1" xmlns="http://www.w3.org/2000/svg" xmlns:xlink="http://www.w3.org/1999/xlink" xml:space="preserve" xmlns:serif="http://www.serif.com/" style="fill-rule:evenodd;clip-rule:evenodd;stroke-linecap:round;stroke-linejoin:round;stroke-miterlimit:1.5;">
    <g id="Layer1" transform="matrix(0.992556,0,0,0.991326,0,0)">
        <g transform="matrix(0.976435,0,0,0.977647,12.4258,12.4412)">
            <rect x="0" y="0" width="800" height="800" style="fill:rgb(117,126,133);stroke:rgb(46,73,99);stroke-width:22.07px;"/>
        </g>
        <g transform="matrix(1,0,0,1,-8.06,10.0875)">
            <g opacity="0.5">
                <g transform="matrix(2.42425,0,0,0.748171,-531.899,-28.5776)">
                    <path d="M480.133,169.692C480.133,144.415 473.807,123.894 466.016,123.894L305.274,123.894C297.483,123.894 291.158,144.415 291.158,169.692L291.158,261.287C291.158,286.563 297.483,307.084 305.274,307.084L466.016,307.084C473.807,307.084 480.133,286.563 480.133,261.287L480.133,169.692Z" style="stroke:black;stroke-width:11.92px;"/>
                </g>
                <path d="M400,201.174L141.05,436.15L400,201.174Z" style="fill:none;stroke:black;stroke-width:21.39px;"/>
                <path d="M400,201.174L664.95,436.15L400,201.174Z" style="fill:none;stroke:black;stroke-width:21.39px;"/>
                <path d="M400,432.203L400,201.174" style="fill:none;stroke:black;stroke-width:21.39px;"/>
                <g transform="matrix(0.88088,0,0,1.46133,-198.657,255.099)">
                    <path d="M480.133,152.408C480.133,136.671 458.963,123.894 432.889,123.894L338.401,123.894C312.327,123.894 291.158,136.671 291.158,152.408L291.158,278.571C291.158,294.308 312.327,307.084 338.401,307.084L432.889,307.084C458.963,307.084 480.133,294.308 480.133,278.571L480.133,152.408Z" style="stroke:black;stroke-width:17.74px;"/>
                </g>
                <g transform="matrix(0.88088,0,0,1.46133,63.293,255.099)">
                    <path d="M480.133,152.408C480.133,136.671 458.963,123.894 432.889,123.894L338.401,123.894C312.327,123.894 291.158,136.671 291.158,152.408L291.158,278.571C291.158,294.308 312.327,307.084 338.401,307.084L432.889,307.084C458.963,307.084 480.133,294.308 480.133,278.571L480.133,152.408Z" style="stroke:black;stroke-width:17.74px;"/>
                </g>
                <g transform="matrix(0.88088,0,0,1.46133,325.243,255.099)">
                    <path d="M480.133,152.408C480.133,136.671 458.963,123.894 432.889,123.894L338.401,123.894C312.327,123.894 291.158,136.671 291.158,152.408L291.158,278.571C291.158,294.308 312.327,307.084 338.401,307.084L432.889,307.084C458.963,307.084 480.133,294.308 480.133,278.571L480.133,152.408Z" style="stroke:black;stroke-width:17.74px;"/>
                </g>
            </g>
        </g>
        <g>
            <g transform="matrix(2.42425,0,0,0.748171,-531.899,-28.5776)">
                <path d="M480.133,169.692C480.133,144.415 473.807,123.894 466.016,123.894L305.274,123.894C297.483,123.894 291.158,144.415 291.158,169.692L291.158,261.287C291.158,286.563 297.483,307.084 305.274,307.084L466.016,307.084C473.807,307.084 480.133,286.563 480.133,261.287L480.133,169.692Z" style="fill:rgb(151,158,164);stroke:rgb(46,73,99);stroke-width:11.92px;"/>
            </g>
            <path d="M400,201.174L141.05,436.15L400,201.174Z" style="fill:none;stroke:rgb(46,73,99);stroke-width:21.39px;"/>
            <path d="M400,201.174L664.95,436.15L400,201.174Z" style="fill:none;stroke:rgb(46,73,99);stroke-width:21.39px;"/>
            <path d="M400,432.203L400,201.174" style="fill:none;stroke:rgb(46,73,99);stroke-width:21.39px;"/>
            <g transform="matrix(0.88088,0,0,1.46133,-198.657,255.099)">
                <path d="M480.133,152.408C480.133,136.671 458.963,123.894 432.889,123.894L338.401,123.894C312.327,123.894 291.158,136.671 291.158,152.408L291.158,278.571C291.158,294.308 312.327,307.084 338.401,307.084L432.889,307.084C458.963,307.084 480.133,294.308 480.133,278.571L480.133,152.408Z" style="fill:rgb(151,158,164);stroke:rgb(46,73,99);stroke-width:17.74px;"/>
            </g>
            <g transform="matrix(0.88088,0,0,1.46133,63.293,255.099)">
                <path d="M480.133,152.408C480.133,136.671 458.963,123.894 432.889,123.894L338.401,123.894C312.327,123.894 291.158,136.671 291.158,152.408L291.158,278.571C291.158,294.308 312.327,307.084 338.401,307.084L432.889,307.084C458.963,307.084 480.133,294.308 480.133,278.571L480.133,152.408Z" style="fill:rgb(151,158,164);stroke:rgb(46,73,99);stroke-width:17.74px;"/>
            </g>
            <g transform="matrix(0.88088,0,0,1.46133,325.243,255.099)">
                <path d="M480.133,152.408C480.133,136.671 458.963,123.894 432.889,123.894L338.401,123.894C312.327,123.894 291.158,136.671 291.158,152.408L291.158,278.571C291.158,294.308 312.327,307.084 338.401,307.084L432.889,307.084C458.963,307.084 480.133,294.308 480.133,278.571L480.133,152.408Z" style="fill:rgb(151,158,164);stroke:rgb(46,73,99);stroke-width:17.74px;"/>
            </g>
        </g>
    </g>
</svg>
